<mxfile host="app.diagrams.net" modified="2022-11-02T07:24:12.325Z" agent="5.0 (X11; Linux x86_64) AppleWebKit/537.36 (KHTML, like Gecko) Chrome/106.0.0.0 Safari/537.36" etag="RE-FpWIRp4JRdRLE_Y_3" version="20.5.1" type="github">
  <diagram id="RUpkXgZDUCdTfwVXq8hk" name="第 1 页">
    <mxGraphModel dx="1422" dy="748" grid="1" gridSize="10" guides="1" tooltips="1" connect="1" arrows="1" fold="1" page="1" pageScale="1" pageWidth="827" pageHeight="1169" math="0" shadow="0">
      <root>
        <mxCell id="0" />
        <mxCell id="1" parent="0" />
        <mxCell id="fIt8YLkk8Fb-nT5bD-PA-9" style="edgeStyle=orthogonalEdgeStyle;rounded=0;orthogonalLoop=1;jettySize=auto;html=1;exitX=1;exitY=0.5;exitDx=0;exitDy=0;entryX=0;entryY=0.5;entryDx=0;entryDy=0;" edge="1" parent="1" source="fIt8YLkk8Fb-nT5bD-PA-2" target="fIt8YLkk8Fb-nT5bD-PA-4">
          <mxGeometry relative="1" as="geometry" />
        </mxCell>
        <mxCell id="fIt8YLkk8Fb-nT5bD-PA-17" value="间隔轮询" style="edgeLabel;html=1;align=center;verticalAlign=middle;resizable=0;points=[];" vertex="1" connectable="0" parent="fIt8YLkk8Fb-nT5bD-PA-9">
          <mxGeometry x="-0.2929" y="-2" relative="1" as="geometry">
            <mxPoint x="21" as="offset" />
          </mxGeometry>
        </mxCell>
        <mxCell id="fIt8YLkk8Fb-nT5bD-PA-14" style="edgeStyle=orthogonalEdgeStyle;rounded=0;orthogonalLoop=1;jettySize=auto;html=1;exitX=0.5;exitY=1;exitDx=0;exitDy=0;entryX=0.5;entryY=1;entryDx=0;entryDy=0;" edge="1" parent="1" source="fIt8YLkk8Fb-nT5bD-PA-2" target="fIt8YLkk8Fb-nT5bD-PA-7">
          <mxGeometry relative="1" as="geometry" />
        </mxCell>
        <mxCell id="fIt8YLkk8Fb-nT5bD-PA-21" value="增删改查" style="edgeLabel;html=1;align=center;verticalAlign=middle;resizable=0;points=[];" vertex="1" connectable="0" parent="fIt8YLkk8Fb-nT5bD-PA-14">
          <mxGeometry x="0.0279" y="-1" relative="1" as="geometry">
            <mxPoint as="offset" />
          </mxGeometry>
        </mxCell>
        <mxCell id="fIt8YLkk8Fb-nT5bD-PA-2" value="调度器" style="rounded=1;whiteSpace=wrap;html=1;" vertex="1" parent="1">
          <mxGeometry x="64" y="290" width="120" height="50" as="geometry" />
        </mxCell>
        <mxCell id="fIt8YLkk8Fb-nT5bD-PA-11" style="edgeStyle=orthogonalEdgeStyle;rounded=0;orthogonalLoop=1;jettySize=auto;html=1;exitX=0.5;exitY=1;exitDx=0;exitDy=0;" edge="1" parent="1">
          <mxGeometry relative="1" as="geometry">
            <mxPoint x="264" y="316" as="targetPoint" />
            <mxPoint x="264" y="236" as="sourcePoint" />
          </mxGeometry>
        </mxCell>
        <mxCell id="fIt8YLkk8Fb-nT5bD-PA-3" value="触发器" style="ellipse;whiteSpace=wrap;html=1;" vertex="1" parent="1">
          <mxGeometry x="214" y="190" width="100" height="50" as="geometry" />
        </mxCell>
        <mxCell id="fIt8YLkk8Fb-nT5bD-PA-15" style="edgeStyle=orthogonalEdgeStyle;rounded=0;orthogonalLoop=1;jettySize=auto;html=1;exitX=0.5;exitY=1;exitDx=0;exitDy=0;entryX=0.5;entryY=0;entryDx=0;entryDy=0;" edge="1" parent="1" source="fIt8YLkk8Fb-nT5bD-PA-4" target="fIt8YLkk8Fb-nT5bD-PA-6">
          <mxGeometry relative="1" as="geometry" />
        </mxCell>
        <mxCell id="fIt8YLkk8Fb-nT5bD-PA-23" value="否" style="edgeLabel;html=1;align=center;verticalAlign=middle;resizable=0;points=[];" vertex="1" connectable="0" parent="fIt8YLkk8Fb-nT5bD-PA-15">
          <mxGeometry x="-0.2131" y="1" relative="1" as="geometry">
            <mxPoint as="offset" />
          </mxGeometry>
        </mxCell>
        <mxCell id="fIt8YLkk8Fb-nT5bD-PA-16" style="edgeStyle=orthogonalEdgeStyle;rounded=0;orthogonalLoop=1;jettySize=auto;html=1;exitX=1;exitY=0.5;exitDx=0;exitDy=0;entryX=0;entryY=0.5;entryDx=0;entryDy=0;" edge="1" parent="1" source="fIt8YLkk8Fb-nT5bD-PA-4" target="fIt8YLkk8Fb-nT5bD-PA-5">
          <mxGeometry relative="1" as="geometry" />
        </mxCell>
        <mxCell id="fIt8YLkk8Fb-nT5bD-PA-22" value="是" style="edgeLabel;html=1;align=center;verticalAlign=middle;resizable=0;points=[];" vertex="1" connectable="0" parent="fIt8YLkk8Fb-nT5bD-PA-16">
          <mxGeometry x="-0.2319" y="2" relative="1" as="geometry">
            <mxPoint as="offset" />
          </mxGeometry>
        </mxCell>
        <mxCell id="fIt8YLkk8Fb-nT5bD-PA-4" value="是否满足运行条件？" style="rhombus;whiteSpace=wrap;html=1;" vertex="1" parent="1">
          <mxGeometry x="464" y="282.5" width="140" height="65" as="geometry" />
        </mxCell>
        <mxCell id="fIt8YLkk8Fb-nT5bD-PA-8" style="edgeStyle=orthogonalEdgeStyle;rounded=0;orthogonalLoop=1;jettySize=auto;html=1;exitX=0.5;exitY=0;exitDx=0;exitDy=0;entryX=0.5;entryY=0;entryDx=0;entryDy=0;" edge="1" parent="1" source="fIt8YLkk8Fb-nT5bD-PA-5" target="fIt8YLkk8Fb-nT5bD-PA-2">
          <mxGeometry relative="1" as="geometry">
            <Array as="points">
              <mxPoint x="724" y="170" />
              <mxPoint x="124" y="170" />
            </Array>
          </mxGeometry>
        </mxCell>
        <mxCell id="fIt8YLkk8Fb-nT5bD-PA-20" value="返回执行结果" style="edgeLabel;html=1;align=center;verticalAlign=middle;resizable=0;points=[];" vertex="1" connectable="0" parent="fIt8YLkk8Fb-nT5bD-PA-8">
          <mxGeometry x="0.0162" y="1" relative="1" as="geometry">
            <mxPoint as="offset" />
          </mxGeometry>
        </mxCell>
        <mxCell id="fIt8YLkk8Fb-nT5bD-PA-5" value="执行器" style="ellipse;whiteSpace=wrap;html=1;aspect=fixed;" vertex="1" parent="1">
          <mxGeometry x="684" y="275" width="80" height="80" as="geometry" />
        </mxCell>
        <mxCell id="fIt8YLkk8Fb-nT5bD-PA-6" value="睡眠" style="rounded=0;whiteSpace=wrap;html=1;" vertex="1" parent="1">
          <mxGeometry x="474" y="390" width="120" height="50" as="geometry" />
        </mxCell>
        <mxCell id="fIt8YLkk8Fb-nT5bD-PA-7" value="作业存储器" style="ellipse;whiteSpace=wrap;html=1;" vertex="1" parent="1">
          <mxGeometry x="314" y="368" width="100" height="50" as="geometry" />
        </mxCell>
        <mxCell id="fIt8YLkk8Fb-nT5bD-PA-19" value="" style="endArrow=classic;html=1;rounded=0;" edge="1" parent="1">
          <mxGeometry width="50" height="50" relative="1" as="geometry">
            <mxPoint x="364" y="316" as="sourcePoint" />
            <mxPoint x="364" y="368" as="targetPoint" />
          </mxGeometry>
        </mxCell>
      </root>
    </mxGraphModel>
  </diagram>
</mxfile>
